<svg width="20" height="20" viewBox="0 0 20 20" fill="none" xmlns="http://www.w3.org/2000/svg">
<g clip-path="url(#clip0_120_103)">
<path d="M10.345 4.16667H17.5C17.721 4.16667 17.933 4.25446 18.0892 4.41074C18.2455 4.56702 18.3333 4.77899 18.3333 5V16.6667C18.3333 16.8877 18.2455 17.0996 18.0892 17.2559C17.933 17.4122 17.721 17.5 17.5 17.5H2.49999C2.27898 17.5 2.06701 17.4122 1.91073 17.2559C1.75445 17.0996 1.66666 16.8877 1.66666 16.6667V3.33333C1.66666 3.11232 1.75445 2.90036 1.91073 2.74408C2.06701 2.5878 2.27898 2.5 2.49999 2.5H8.67832L10.345 4.16667ZM9.16666 10H6.66666V11.6667H9.16666V14.1667H10.8333V11.6667H13.3333V10H10.8333V7.5H9.16666V10Z" fill="#5E2627"/>
</g>
<defs>
<clipPath id="clip0_120_103">
<rect width="20" height="20" fill="white"/>
</clipPath>
</defs>
</svg>
