<svg width="20" height="20" viewBox="0 0 20 20" fill="none" xmlns="http://www.w3.org/2000/svg">
<g clip-path="url(#clip0_415_16060)">
<path d="M12.0417 15.8333L10 18.75L7.95835 15.8333H2.50002C2.27901 15.8333 2.06704 15.7455 1.91076 15.5893C1.75448 15.433 1.66669 15.221 1.66669 15V3.33333C1.66669 3.11232 1.75448 2.90036 1.91076 2.74408C2.06704 2.5878 2.27901 2.5 2.50002 2.5H17.5C17.721 2.5 17.933 2.5878 18.0893 2.74408C18.2456 2.90036 18.3334 3.11232 18.3334 3.33333V15C18.3334 15.221 18.2456 15.433 18.0893 15.5893C17.933 15.7455 17.721 15.8333 17.5 15.8333H12.0417Z" fill="#5E2627"/>
</g>
<defs>
<clipPath id="clip0_415_16060">
<rect width="20" height="20" fill="white"/>
</clipPath>
</defs>
</svg>
